<svg xmlns="http://www.w3.org/2000/svg" version="1" width="512" height="512" viewBox="0 0 512 512" preserveAspectRatio="xMidYMid meet"><metadata>
Created by potrace 1.14, written by Peter Selinger 2001-2017
</metadata><g transform="translate(0.000000,512.000000) scale(0.100000,-0.100000)" fill="#000000" stroke="none"><path d="M971 4588c-97-17-192-95-238-195l-25-55-2-396-1-397-257-5c-230-4-259-7-275-23-16-16-18-39-18-205l0-187 32-67c39-82 100-145 179-184l59-29 377-3 377-3 3-862 3-862 28-53c35-67 92-124 159-159l53-28 550-3c399-2 556 0 571 9 45 23 52 81 16 122-14 16-46 17-399 17-210 0-383 2-383 4 0 2 9 24 20 49 12 26 23 76 27 112l6 65 276 0c297 0 318 3 335 51 13 39 0 77-34 94-26 14-78 15-361 13l-331-3-24-28c-22-26-24-36-24-135 0-121-13-155-72-193-27-16-46-19-105-17-67 3-75 6-107 37-25 24-38 49-45 83-7 32-11 565-11 1619 0 1552 0 1571-20 1616-11 25-20 47-20 49 0 2 547 4 1216 4 843 0 1228-3 1258-11 55-14 110-59 139-112 22-42 22-44 27-702 3-363 9-666 13-673 26-40 102-33 126 11 9 16 11 194 9 682l-3 660-32 66c-40 80-120 159-200 197l-58 27-692 3c-381 1-1005 3-1387 5-382 1-713-1-735-5zm129-170c84-44 80-3 80-760l0-668-193 0-194 0 31 62 31 62 5 616c4 465 8 620 17 637 40 68 142 92 223 51zm-398-1161c-2-143-16-187-71-226-35-25-119-43-164-34-50 9-100 41-127 80-23 34-25 47-28 175l-4 138 199-2 198-3-3-128zM1649 3921c-17-13-23-29-23-56 0-62 26-75 151-75 97 0 106 2 128 25 30 30 32 64 4 99-20 25-24 26-129 26-90 0-111-3-131-19zM2011 3914c-28-35-26-69 4-99l24-25 624 0 624 0 21 23c29 31 29 77-1 105l-23 22-626 0-627 0-20-26zM3427 3928c-27-21-36-60-22-94 17-40 29-44 136-44 82 0 92 2 114 25 32 31 33 74 2 103-21 19-35 22-118 22-61 0-101-5-112-12zM1653 3525c-11-8-24-26-27-40-7-29 15-79 39-89 9-3 322-6 695-6 647 0 679 1 701 19 32 26 32 86 0 112-22 18-54 19-705 19-585 0-685-2-703-15zM3221 3514c-28-35-26-69 4-99 24-25 26-25 215-25 189 0 191 0 215 25 32 31 33 74 2 103-22 21-32 22-219 22l-197 0-20-26zM1641 3134c-12-15-21-33-21-41 0-20 20-55 39-70 21-16 449-18 484-2 47 21 56 80 19 122-14 15-39 17-258 17l-243 0-20-26zM2528 3143c-35-40-30-89 11-120 12-9 147-12 554-13l538 0 24 25c31 30 32 73 5 103l-21 22-548 0c-509 0-549-1-563-17zM3510 2795c-247-45-475-169-657-359-153-158-253-334-309-545-35-128-44-352-21-486 101-579 615-1015 1197-1015 658 0 1210 552 1210 1210 0 579-436 1095-1008 1195-104 18-311 18-412 0zm391-151c405-70 721-350 834-739 73-252 51-527-59-761-58-123-115-204-205-295-400-399-1061-410-1479-24-298 276-408 724-276 1121 87 261 280 481 529 607 186 93 439 128 656 91zM3664 2287l-26-23-1-297 0-297-209 0c-208 0-209 0-233-25-31-30-32-73-5-103 20-22 26-22 290-22l269 0 20 26c20 26 21 38 21 371l0 344-25 24c-30 31-66 32-101 2zM1683 2773c-24-5-63-47-63-69 0-26 23-62 47-73 17-8 199-11 599-11l575 0 24 25c43 42 29 105-26 124-31 11-1103 14-1156 4zM1674 2380c-27-11-54-48-54-73 0-10 13-32 29-48l29-29 372 0 371 0 24 25c30 29 32 74 6 106l-19 24-369 2c-202 1-378-2-389-7zM1650 1971c-17-16-30-39-30-51 0-12 13-35 30-51l29-30 342 3 341 3 19 24c24 30 24 72 0 102l-19 24-341 3-342 3-29-30z"/></g></svg>
